<?xml version="1.0" encoding="UTF-8" standalone="no"?>
<!-- Creator: CorelDRAW -->
<svg
   xmlns:dc="http://purl.org/dc/elements/1.1/"
   xmlns:cc="http://creativecommons.org/ns#"
   xmlns:rdf="http://www.w3.org/1999/02/22-rdf-syntax-ns#"
   xmlns:svg="http://www.w3.org/2000/svg"
   xmlns="http://www.w3.org/2000/svg"
   xmlns:sodipodi="http://sodipodi.sourceforge.net/DTD/sodipodi-0.dtd"
   xmlns:inkscape="http://www.inkscape.org/namespaces/inkscape"
   xml:space="preserve"
   width="76.2mm"
   height="88.371mm"
   style="shape-rendering:geometricPrecision; text-rendering:geometricPrecision; image-rendering:optimizeQuality; fill-rule:evenodd; clip-rule:evenodd"
   viewBox="0 0 77.5132 89.894"
   id="svg2"
   sodipodi:version="0.32"
   inkscape:version="0.46"
   sodipodi:docname="logo gastos simyo.svg"
   inkscape:output_extension="org.inkscape.output.svg.inkscape"><metadata
   id="metadata35"><rdf:RDF><cc:Work
       rdf:about=""><dc:format>image/svg+xml</dc:format><dc:type
         rdf:resource="http://purl.org/dc/dcmitype/StillImage" /></cc:Work></rdf:RDF></metadata><sodipodi:namedview
   inkscape:window-height="964"
   inkscape:window-width="1280"
   inkscape:pageshadow="2"
   inkscape:pageopacity="0.0"
   guidetolerance="10.0"
   gridtolerance="10.0"
   objecttolerance="10.0"
   borderopacity="1.0"
   bordercolor="#666666"
   pagecolor="#ffffff"
   id="base"
   showgrid="false"
   inkscape:zoom="0.98297305"
   inkscape:cx="601.4407"
   inkscape:cy="200.48023"
   inkscape:window-x="0"
   inkscape:window-y="25"
   inkscape:current-layer="svg2" />
 <defs
   id="defs4"><inkscape:perspective
   sodipodi:type="inkscape:persp3d"
   inkscape:vp_x="0 : 156.56281 : 1"
   inkscape:vp_y="0 : 1000 : 0"
   inkscape:vp_z="270 : 156.56281 : 1"
   inkscape:persp3d-origin="135 : 104.3752 : 1"
   id="perspective37" />
  <style
   type="text/css"
   id="style6">
   
    .str3 {stroke:#FF6B00;stroke-width:1.61486;stroke-linecap:round}
    .str2 {stroke:black;stroke-width:3.22972;stroke-linecap:round}
    .str0 {stroke:black;stroke-width:8.0743;stroke-linecap:round}
    .str4 {stroke:#FF6B00;stroke-width:9.68916;stroke-linecap:round}
    .str1 {stroke:black;stroke-width:16.1486;stroke-linecap:round}
    .fil3 {fill:#171412}
    .fil0 {fill:black}
    .fil1 {fill:#FF6B00}
    .fil2 {fill:white}
   
  </style>
 </defs>
 <g
   id="g2438"
   transform="translate(122.69208,-16.287937)"
   inkscape:export-xdpi="13.666656"
   inkscape:export-ydpi="13.666656"><g
     id="Capa_x0020_1">
  <metadata
   id="CorelCorpID_0Corel-Layer" />
  <g
   id="_247666152">
   <path
   d="M 53.0212,4.0373 L 49.79148,8.88188 M 53.0212,4.0373 L 53.0212,4.0373 L 53.0212,4.0373 z"
   class="fil0 str0"
   id="_246783688"
   style="fill:#000000;stroke:#000000;stroke-width:8.07429981;stroke-linecap:round" />
   <path
   d="M 24.4921,4.0373 L 27.72182,8.88188 M 24.4921,4.0373 L 24.4921,4.0373 L 24.4921,4.0373 z"
   class="fil0 str0"
   id="_246782712"
   style="fill:#000000;stroke:#000000;stroke-width:8.07429981;stroke-linecap:round" />
   <path
   d="M 29.6058,71.5922 L 29.6058,81.8197 M 29.6058,71.5922 L 29.6058,71.5922 L 29.6058,71.5922 z"
   class="fil0 str1"
   id="_246401992"
   style="fill:#000000;stroke:#000000;stroke-width:16.14859962;stroke-linecap:round" />
   <path
   d="M 47.9075,71.5922 L 47.9075,81.8197 M 47.9075,71.5922 L 47.9075,71.5922 L 47.9075,71.5922 z"
   class="fil0 str1"
   id="_246401480"
   style="fill:#000000;stroke:#000000;stroke-width:16.14859962;stroke-linecap:round" />
   <path
   d="M 8.0743,34.4505 L 8.0743,55.1745 M 8.0743,34.4505 L 8.0743,34.4505 L 8.0743,34.4505 z"
   class="fil0 str1"
   id="_246400504"
   style="fill:#000000;stroke:#000000;stroke-width:16.14859962;stroke-linecap:round" />
   <path
   d="M 69.439,34.4505 L 69.439,55.1745 M 69.439,34.4505 L 69.439,34.4505 L 69.439,34.4505 z"
   class="fil0 str1"
   id="_246876368"
   style="fill:#000000;stroke:#000000;stroke-width:16.14859962;stroke-linecap:round" />
   <ellipse
   ry="20.185699"
   rx="24.2229"
   cy="26.3762"
   cx="38.756599"
   class="fil1 str2"
   id="_246875456"
   sodipodi:cx="38.756599"
   sodipodi:cy="26.3762"
   sodipodi:rx="24.2229"
   sodipodi:ry="20.185699"
   style="fill:#ff6b00;stroke:#000000;stroke-width:3.22972012;stroke-linecap:round" />
   <path
   d="M 62.9795,27.991 L 14.5337,27.991 L 14.5337,65.1328 C 14.533802,68.83869 17.55641,71.8613 21.2624,71.8613 L 56.2509,71.861402 C 59.95689,71.8613 62.9795,68.838692 62.9795,65.132702 L 62.9795,27.991002 L 62.9795,27.991 z"
   class="fil1 str2"
   id="_246874784"
   style="fill:#ff6b00;stroke:#000000;stroke-width:3.22972012;stroke-linecap:round" />
   <circle
   r="2.42224"
   cy="17.4944"
   cx="29.067499"
   class="fil2"
   id="_246395344"
   sodipodi:cx="29.067499"
   sodipodi:cy="17.4944"
   sodipodi:rx="2.42224"
   sodipodi:ry="2.42224"
   style="fill:#ffffff" />
   <circle
   r="2.42224"
   cy="17.4944"
   cx="48.445801"
   class="fil2"
   id="_246394432"
   sodipodi:cx="48.445801"
   sodipodi:cy="17.4944"
   sodipodi:rx="2.42224"
   sodipodi:ry="2.42224"
   style="fill:#ffffff" />
   <path
   d="M 53.0212,4.0373 L 46.56176,13.72646 M 53.0212,4.0373 L 53.0212,4.0373 L 53.0212,4.0373 z"
   class="fil0 str3"
   id="_246393456"
   style="fill:#000000;stroke:#ff6b00;stroke-width:1.61486006;stroke-linecap:round" />
   <path
   d="M 24.4921,4.0373 L 30.95154,13.72646 M 24.4921,4.0373 L 24.4921,4.0373 L 24.4921,4.0373 z"
   class="fil1 str3"
   id="_245761888"
   style="fill:#ff6b00;stroke:#ff6b00;stroke-width:1.61486006;stroke-linecap:round" />
   <path
   d="M 29.6058,71.5922 L 29.6058,81.8197 M 29.6058,71.5922 L 29.6058,71.5922 L 29.6058,71.5922 z"
   class="fil0 str4"
   id="_246373184"
   style="fill:#000000;stroke:#ff6b00;stroke-width:9.68916035;stroke-linecap:round" />
   <path
   d="M 47.9075,71.5922 L 47.9075,81.8197 M 47.9075,71.5922 L 47.9075,71.5922 L 47.9075,71.5922 z"
   class="fil1 str4"
   id="_246372792"
   style="fill:#ff6b00;stroke:#ff6b00;stroke-width:9.68916035;stroke-linecap:round" />
   <path
   d="M 8.0743,34.4505 L 8.0743,55.1745 M 8.0743,34.4505 L 8.0743,34.4505 L 8.0743,34.4505 z"
   class="fil0 str4"
   id="_246332840"
   style="fill:#000000;stroke:#ff6b00;stroke-width:9.68916035;stroke-linecap:round" />
   <path
   d="M 69.439,34.4505 L 69.439,55.1745 M 69.439,34.4505 L 69.439,34.4505 L 69.439,34.4505 z"
   class="fil1 str4"
   id="_246332632"
   style="fill:#ff6b00;stroke:#ff6b00;stroke-width:9.68916035;stroke-linecap:round" />
  </g>
  <g
   id="_247824856">
   <polygon
   points="27.937,42.4075 27.8294,42.4613 27.7217,42.5151 27.6679,42.569 27.614,42.6228 27.5602,42.6766 27.5064,42.7305 27.4525,42.7843 27.3987,42.892 27.3449,42.9458 27.2911,43.1072 27.2911,43.6994 27.3449,43.8609 27.3987,43.9685 27.4525,44.0761 27.5064,44.13 27.5602,44.1839 27.614,44.2377 27.6679,44.2915 27.7755,44.3453 27.8832,44.3991 27.9908,44.4529 28.6368,44.4529 28.7983,44.3991 28.9059,44.3453 28.9597,44.2915 29.0136,44.2377 29.0674,44.1839 29.1213,44.13 29.1751,44.0761 29.2289,44.0223 29.2827,43.9147 29.3365,43.807 29.3903,43.5917 29.3903,43.215 29.3365,43.0534 29.2827,42.892 29.2289,42.8381 29.1751,42.7305 29.1213,42.6766 29.0674,42.6228 29.0136,42.569 28.9059,42.5151 28.8521,42.4613 28.6906,42.4075 28.4753,42.3537 28.1524,42.3537 27.937,42.4075 "
   class="fil3"
   id="_246831880"
   style="fill:#171412" />
   <polygon
   points="32.7816,45.5834 32.4586,45.6372 32.2433,45.691 32.0818,45.7448 31.9203,45.7987 31.8127,45.8525 31.7051,45.9064 31.5973,45.9602 31.5435,46.014 31.4359,46.0678 31.3821,46.1217 31.3282,46.1755 31.2744,46.2293 31.2205,46.2831 31.1667,46.337 31.1129,46.3908 31.0591,46.4985 31.0052,46.5523 30.9514,46.6061 30.8976,46.7137 30.8438,46.8215 30.79,47.0367 30.7361,47.4674 30.6822,51.0201 30.6822,51.9352 32.2433,51.9352 32.2971,47.4136 32.351,47.3059 32.4048,47.1982 32.4586,47.1444 32.5124,47.0906 32.5662,47.0367 32.674,46.9829 32.7816,46.9291 32.9969,46.8753 33.589,46.8215 34.6117,46.8215 35.15,46.8753 35.3654,46.9291 35.473,46.9829 35.5806,47.0367 35.6345,47.0906 35.6883,47.1444 35.7422,47.1982 35.796,47.2521 35.8498,47.3597 35.9037,47.6288 35.9575,51.9352 37.5184,51.9352 37.5724,47.6288 37.6262,47.3597 37.68,47.1982 37.7338,47.1444 37.7876,47.0906 37.8415,47.0367 37.9491,46.9829 38.0568,46.9291 38.2183,46.8753 38.7565,46.8215 39.887,46.8215 40.4252,46.8753 40.6405,46.9291 40.7482,46.9829 40.8559,47.0367 40.9097,47.0906 40.9635,47.1444 41.0173,47.1982 41.0712,47.2521 41.1251,47.3059 41.1789,47.5212 41.2327,51.9352 42.7937,51.9352 42.7937,49.4052 42.7399,47.5212 42.686,47.1444 42.6322,46.9829 42.5784,46.8753 42.5246,46.7676 42.4708,46.6599 42.4169,46.6061 42.363,46.4985 42.3092,46.4447 42.2554,46.3908 42.2016,46.337 42.1478,46.2831 42.094,46.2293 42.0402,46.1755 41.9862,46.1217 41.9324,46.0678 41.8786,46.014 41.771,45.9602 41.7171,45.9064 41.6095,45.8525 41.5018,45.7987 41.3403,45.7448 41.1789,45.691 41.0173,45.6372 40.6944,45.5834 39.7254,45.5296 38.6489,45.5296 38.003,45.5834 37.7338,45.6372 37.5184,45.691 37.357,45.7448 37.2494,45.7987 37.0879,45.8525 36.9802,45.9064 36.8726,45.9602 36.7649,46.014 36.6573,46.014 36.5495,45.9602 36.4419,45.9064 36.3343,45.8525 36.1727,45.7987 36.0651,45.7448 35.9037,45.691 35.6883,45.6372 35.3654,45.5834 34.8809,45.5296 33.3737,45.5296 32.7816,45.5834 "
   class="fil3"
   id="_234496"
   style="fill:#171412" />
   <path
   d="M 54.0439,47.898 L 54.097712,47.575028 L 54.151523,47.467405 L 54.205335,47.35968 L 54.259147,47.252057 L 54.312958,47.198245 L 54.366872,47.144434 L 54.420684,47.090622 L 54.474495,47.036709 L 54.582118,46.982897 L 54.63593,46.929085 L 54.743655,46.875273 L 54.90509,46.821462 L 55.17425,46.76765 L 57.59649,46.76765 L 57.973375,46.821462 L 58.13481,46.875273 L 58.242535,46.929085 L 58.350158,46.982897 L 58.40397,47.036709 L 58.457781,47.090622 L 58.565404,47.090622 L 58.565404,47.198245 L 58.619318,47.252057 L 58.673129,47.35968 L 58.726941,47.467405 L 58.780753,47.62884 L 58.834565,47.898 L 58.834565,49.62048 L 58.780753,49.88964 L 58.726941,49.997365 L 58.673129,50.104988 L 58.619318,50.212611 L 58.565404,50.266422 L 58.511593,50.374147 L 58.40397,50.427959 L 58.350158,50.481771 L 58.242535,50.535582 L 58.13481,50.589394 L 57.973375,50.643307 L 57.758027,50.697119 L 57.27362,50.750931 L 55.60485,50.750931 L 55.120443,50.697119 L 54.905095,50.643307 L 54.74366,50.589394 L 54.635935,50.535582 L 54.528312,50.481771 L 54.4745,50.427959 L 54.420689,50.374147 L 54.366877,50.320336 L 54.312963,50.266422 L 54.259152,50.212611 L 54.20534,50.104988 L 54.151528,49.997365 L 54.097717,49.835828 L 54.043905,49.459044 L 54.043905,47.897994 L 54.0439,47.898 z M 54.420684,45.6372 L 54.205336,45.691012 L 54.097713,45.744823 L 53.936176,45.798737 L 53.828553,45.852548 L 53.720828,45.90636 L 53.613205,45.960172 L 53.505582,46.013984 L 53.45177,46.067795 L 53.344045,46.121709 L 53.290234,46.17552 L 53.236422,46.229332 L 53.18261,46.283144 L 53.128799,46.336955 L 53.074987,46.390767 L 53.021073,46.444681 L 52.967262,46.498492 L 52.91345,46.606115 L 52.859638,46.659927 L 52.805827,46.767652 L 52.751913,46.875275 L 52.698102,46.982898 L 52.64429,47.144435 L 52.590478,47.359682 L 52.536666,47.951814 L 52.536666,49.512864 L 52.590478,50.104996 L 52.64429,50.374156 L 52.698102,50.481779 L 52.751913,50.589402 L 52.805827,50.697127 L 52.859638,50.80475 L 52.91345,50.858562 L 52.967262,50.966287 L 53.021073,51.020098 L 53.074987,51.07391 L 53.128799,51.127722 L 53.18261,51.181533 L 53.236422,51.235345 L 53.290234,51.289259 L 53.344045,51.34307 L 53.397959,51.396882 L 53.505582,51.450694 L 53.559393,51.504505 L 53.667016,51.558317 L 53.774741,51.61223 L 53.936176,51.666042 L 54.043901,51.719854 L 54.205336,51.773666 L 54.420684,51.827477 L 54.635931,51.881289 L 55.012816,51.935202 L 57.435056,51.935202 L 58.134811,51.881289 L 58.511595,51.827477 L 58.673132,51.773666 L 58.834567,51.719854 L 58.942292,51.666042 L 59.103727,51.61223 L 59.211452,51.558317 L 59.319075,51.504505 L 59.372887,51.450694 L 59.48051,51.396882 L 59.534322,51.34307 L 59.588235,51.289259 L 59.642047,51.235345 L 59.74967,51.181533 L 59.803482,51.127722 L 59.857293,51.020099 L 59.911207,50.966287 L 59.965018,50.912374 L 60.01883,50.804751 L 60.072642,50.750939 L 60.126453,50.643316 L 60.180367,50.535591 L 60.234179,50.374156 L 60.28799,50.158808 L 60.341802,49.243704 L 60.341802,47.790384 L 60.28799,47.252064 L 60.234179,47.036716 L 60.180367,46.929093 L 60.126453,46.82147 L 60.072642,46.713745 L 60.01883,46.606122 L 59.965018,46.55231 L 59.911207,46.444687 L 59.857293,46.390774 L 59.803482,46.336962 L 59.74967,46.28315 L 59.695858,46.229339 L 59.588235,46.175527 L 59.534322,46.121715 L 59.48051,46.067802 L 59.372887,46.01399 L 59.265264,45.960179 L 59.211452,45.906367 L 59.049915,45.852555 L 58.942292,45.798744 L 58.780755,45.74483 L 58.673132,45.691018 L 58.457784,45.637207 L 58.188624,45.583395 L 54.689744,45.583395 L 54.420686,45.637207 L 54.420684,45.6372 z"
   class="fil3"
   id="_245604088"
   style="fill:#171412" />
   <polygon
   points="44.1932,49.5129 44.247,50.1588 44.3009,50.3203 44.3548,50.4818 44.4086,50.5894 44.4624,50.6433 44.5162,50.7509 44.57,50.8047 44.6238,50.8586 44.6777,50.9663 44.7316,51.0201 44.7854,51.0739 44.8392,51.1277 44.893,51.1815 44.9469,51.2353 45.0007,51.2893 45.0545,51.3431 45.1621,51.3969 45.216,51.4507 45.3237,51.5045 45.4313,51.5583 45.5389,51.6122 45.6467,51.666 45.8081,51.7199 45.9696,51.7737 46.1849,51.8275 46.454,51.8813 46.777,51.9352 46.9948,51.9352 46.9385,53.8191 46.8846,53.873 46.8308,53.9268 46.777,53.9807 46.7232,54.0883 46.6694,54.196 46.6156,54.3574 46.6156,54.8958 46.6694,55.0572 46.7232,55.1649 46.777,55.2187 46.8308,55.3264 46.8846,55.3802 46.9385,55.434 47.0462,55.4879 47.1,55.5417 47.2076,55.5955 47.3691,55.6493 47.9613,55.6493 48.1227,55.5955 48.2304,55.5417 48.2842,55.4879 48.3381,55.434 48.4457,55.3802 48.4995,55.2725 48.5534,55.2187 48.6072,55.111 48.661,55.0034 48.7148,54.8418 48.7148,54.3574 48.661,54.196 48.6072,54.0883 48.5534,53.9807 48.4995,53.9268 48.4457,53.873 48.3919,53.8191 48.3381,51.9352 48.4995,51.9352 48.8225,51.8813 49.0916,51.8275 49.3608,51.7737 49.5761,51.7199 49.7376,51.666 49.8453,51.6122 50.0067,51.5583 50.0605,51.5045 50.1683,51.4507 50.2759,51.3969 50.3297,51.3431 50.3835,51.2893 50.4373,51.2353 50.4912,51.1815 50.545,51.1277 50.5989,51.0739 50.6527,51.0201 50.7065,50.9663 50.7603,50.9124 50.8142,50.8586 50.868,50.8047 50.9218,50.6971 50.9756,50.5894 51.0295,50.4818 51.0833,50.2664 51.1372,49.5129 51.1372,45.5834 49.6299,45.5834 49.5761,48.6516 49.5223,49.782 49.4684,49.9974 49.4146,50.105 49.3608,50.1588 49.307,50.2126 49.2532,50.2664 49.1454,50.3203 49.0916,50.3742 48.984,50.428 48.8225,50.4818 48.4995,50.5356 46.8846,50.5356 46.5078,50.4818 46.4002,50.428 46.2387,50.3742 46.1849,50.3203 46.0773,50.2664 45.9696,50.2126 45.9157,50.1588 45.8619,50.0512 45.8081,49.8896 45.7543,49.2975 45.7005,45.5834 44.1932,45.5834 44.1932,49.5129 "
   class="fil3"
   id="_247828888"
   style="fill:#171412" />
   <polygon
   points="19.6474,45.6372 19.4859,45.691 19.3244,45.7448 19.163,45.7987 19.0553,45.8525 18.9476,45.9064 18.84,45.9602 18.7862,46.014 18.7324,46.0678 18.6785,46.1217 18.6246,46.1755 18.5708,46.2293 18.517,46.2831 18.4632,46.3908 18.4093,46.4985 18.3555,46.7137 18.3555,48.1133 18.4093,48.2748 18.4632,48.3825 18.517,48.4901 18.5708,48.5978 18.6246,48.7055 18.6785,48.7593 18.7324,48.8131 18.7862,48.8669 18.84,48.9207 18.9476,48.9745 19.0014,49.0285 19.1092,49.0823 19.2706,49.1361 19.4321,49.1899 19.7013,49.2437 20.6163,49.2975 23.7384,49.3514 24.169,49.4052 24.3305,49.459 24.4381,49.5129 24.4919,49.6205 24.5458,49.7282 24.5458,50.3203 24.4919,50.428 24.4381,50.4818 24.3843,50.5356 24.2767,50.5894 24.0075,50.6433 22.8233,50.6971 20.4549,50.6971 20.1857,50.6433 20.0781,50.5894 19.9703,50.5356 19.9165,50.4818 19.8627,50.428 19.8089,50.3742 19.7551,50.3203 19.7013,50.2126 19.6474,49.9974 19.5936,49.9435 18.2479,49.9435 18.2479,50.3742 18.3017,50.6433 18.3555,50.8047 18.4093,50.9124 18.4632,51.0201 18.517,51.1277 18.5708,51.1815 18.6246,51.2893 18.6785,51.3431 18.7324,51.3969 18.7862,51.4507 18.84,51.5045 18.9476,51.5583 19.0553,51.6122 19.163,51.666 19.2706,51.7199 19.4321,51.7737 19.5936,51.8275 19.8089,51.8813 20.2933,51.9352 23.5768,51.9352 24.3843,51.8813 24.7611,51.8275 24.9226,51.7737 25.0841,51.7199 25.1917,51.666 25.2994,51.6122 25.4071,51.5583 25.4609,51.5045 25.5147,51.4507 25.6224,51.3969 25.6762,51.3431 25.73,51.2353 25.7838,51.1815 25.8377,51.1277 25.8916,51.0201 25.9454,50.9124 25.9992,50.7509 26.053,50.5356 26.1068,50.0512 26.1068,49.9974 26.053,49.459 25.9992,49.2437 25.9454,49.0823 25.8916,48.9745 25.8377,48.9207 25.7838,48.8131 25.73,48.7593 25.6762,48.7055 25.6224,48.6516 25.5686,48.5978 25.5147,48.5439 25.4609,48.4901 25.3532,48.4363 25.2456,48.3825 25.1379,48.3286 24.9765,48.2748 24.8149,48.221 24.3843,48.1672 22.285,48.1133 20.4549,48.0595 20.1319,48.0056 20.0243,47.9518 19.9165,47.9518 19.9165,47.8442 19.8627,47.7904 19.8089,47.5212 19.8089,47.3597 19.8627,47.0906 19.9165,46.9829 19.9703,46.9291 20.0243,46.8753 20.1857,46.8215 20.6163,46.7676 23.6308,46.7676 23.9537,46.8215 24.0614,46.8753 24.169,46.9291 24.2228,46.9829 24.2767,47.0367 24.3305,47.0906 24.3843,47.1982 24.4381,47.2521 24.5458,47.3059 25.8377,47.3059 25.8377,46.7137 25.7838,46.5523 25.73,46.3908 25.6762,46.337 25.6224,46.2293 25.5686,46.1755 25.5147,46.1217 25.4609,46.0678 25.4071,46.014 25.3532,45.9602 25.2456,45.9064 25.1379,45.8525 25.0303,45.7987 24.9226,45.7448 24.7611,45.691 24.5458,45.6372 24.2228,45.5834 19.9703,45.5834 19.6474,45.6372 "
   class="fil3"
   id="_247875024"
   style="fill:#171412" />
   <polygon
   points="27.5602,51.9352 29.0674,51.9352 29.0674,45.5834 27.5602,45.5834 27.5602,51.9352 "
   class="fil3"
   id="_246845360"
   style="fill:#171412" />
  </g>
 </g></g>
</svg>